<svg width="35" height="35" viewBox="0 0 35 35" fill="none" xmlns="http://www.w3.org/2000/svg">
<path opacity="0.4" fill-rule="evenodd" clip-rule="evenodd" d="M30.4958 11.9977C28.3962 12.5259 25.9172 12.5609 23.7759 11.9068C22.8707 11.6302 22.1649 10.925 21.8594 10.0292C21.0983 7.79745 20.9103 5.06578 21.4696 2.96312C20.3115 2.93404 18.9945 2.91675 17.5 2.91675C12.4188 2.91675 9.39086 3.11628 7.67499 3.30144C6.40377 3.43861 5.42357 4.29963 5.18554 5.55585C4.81505 7.5113 4.375 11.1669 4.375 17.5001C4.375 23.8333 4.81505 27.4888 5.18554 29.4443C5.42357 30.7006 6.40377 31.5616 7.67499 31.6987C9.39086 31.8838 12.4188 32.0834 17.5 32.0834C22.5813 32.0834 25.6092 31.8838 27.3251 31.6987C28.5963 31.5616 29.5765 30.7006 29.8145 29.4443C30.1849 27.4888 30.625 23.8333 30.625 17.5001C30.625 15.3775 30.5756 13.5556 30.4958 11.9977ZM11.6667 18.9584C10.8612 18.9584 10.2083 18.3055 10.2083 17.5001C10.2083 16.6946 10.8612 16.0417 11.6667 16.0417H17.5C18.3054 16.0417 18.9583 16.6946 18.9583 17.5001C18.9583 18.3055 18.3054 18.9584 17.5 18.9584H11.6667ZM11.6667 25.5209C10.8612 25.5209 10.2083 24.868 10.2083 24.0626C10.2083 23.2571 10.8612 22.6042 11.6667 22.6042H21.875C22.6804 22.6042 23.3333 23.2571 23.3333 24.0626C23.3333 24.868 22.6804 25.5209 21.875 25.5209H11.6667Z" fill="#637381"/>
<path d="M10.2084 24.0626C10.2084 24.868 10.8613 25.5209 11.6667 25.5209H21.875C22.6805 25.5209 23.3334 24.868 23.3334 24.0626C23.3334 23.2571 22.6805 22.6042 21.875 22.6042H11.6667C10.8613 22.6042 10.2084 23.2571 10.2084 24.0626Z" fill="#637381"/>
<path d="M10.2084 17.5001C10.2084 18.3055 10.8613 18.9584 11.6667 18.9584H17.5C18.3055 18.9584 18.9584 18.3055 18.9584 17.5001C18.9584 16.6946 18.3055 16.0417 17.5 16.0417H11.6667C10.8613 16.0417 10.2084 16.6946 10.2084 17.5001Z" fill="#637381"/>
<path d="M30.4957 11.9976C28.3962 12.5257 25.9172 12.5608 23.776 11.9066C22.8707 11.6301 22.1649 10.9249 21.8593 10.029C21.0982 7.79728 20.9101 5.06556 21.4695 2.96289C21.4695 2.96289 23.2547 3.64568 26.5359 6.92693C29.8172 10.2082 30.4957 11.9976 30.4957 11.9976Z" fill="#637381"/>
</svg>
