<svg width="35" height="35" viewBox="0 0 35 35" fill="none" xmlns="http://www.w3.org/2000/svg">
<path opacity="0.4" d="M3.3264 28.6673C3.45571 29.9194 4.27668 30.9105 5.50791 31.1727C7.45131 31.5864 11.1148 32.0834 17.5 32.0834C23.8851 32.0834 27.5486 31.5864 29.4921 31.1727C30.7232 30.9105 31.5441 29.9194 31.6735 28.6673C31.8653 26.8107 32.0833 23.4018 32.0833 17.5001C32.0833 11.5983 31.8653 8.1895 31.6735 6.33291C31.5441 5.08075 30.7232 4.0896 29.492 3.82749C27.5486 3.41376 23.8851 2.91675 17.5 2.91675C11.1148 2.91675 7.45131 3.41376 5.50791 3.82749C4.27668 4.0896 3.45571 5.08075 3.3264 6.33291C3.13468 8.1895 2.91663 11.5983 2.91663 17.5001C2.91663 23.4018 3.13468 26.8107 3.3264 28.6673Z" fill="#637381"/>
<path d="M20.3265 20.2065C22.2585 19.1892 23.5758 17.1615 23.5758 14.8263C23.5758 11.4705 20.8553 8.75 17.4994 8.75C14.1435 8.75 11.423 11.4705 11.423 14.8263C11.423 17.1617 12.7403 19.1893 14.6725 20.2067C12.085 21.1925 10.1094 23.4926 9.49737 26.3271C9.41271 26.7194 9.62855 27.1222 10.0237 27.1937C11.4418 27.4504 13.7902 27.7083 17.5008 27.7083C21.2114 27.7083 23.5599 27.4504 24.978 27.1937C25.3716 27.1225 25.587 26.7212 25.5027 26.3304C24.8915 23.4942 22.9152 21.1926 20.3265 20.2065Z" fill="#637381"/>
</svg>
